# xmcd
#
# Track frame offsets:
#	205
#	20452
#	35639
#	53225
#	69263
#	93448
#	106917
#	124596
#	141174
#	155256
#	172505
#	188098
#	203088
#	218044
#	233421
#
# Disc length: 3281 seconds
#
# Revision: 1
# Processed by: cddbd v1.4PL0 Copyright (c) Steve Scherf et al.
# Submitted via: audiograbber 1.81.02
#
DISCID=b90ccf0f
DTITLE=Duke Davis - Follow The Wagon
DYEAR=1998
DGENRE=Western
TTITLE0=I'd Like to Be in Texas
TTITLE1=Yellow Rose of Texas
TTITLE2=Streets of Laredo
TTITLE3=Chopo
TTITLE4=Border Affair
TTITLE5=Hills of Mexico
TTITLE6=Navajo Trail
TTITLE7=Miles and Miles of Texas
TTITLE8=Down by the Brazos
TTITLE9=When the Work's All Done This Fall
TTITLE10=Colorado Trail
TTITLE11=Doggone Cowboy
TTITLE12=Panhandle Wind
TTITLE13=Ridin' Down the Canyon
TTITLE14=Tuffy Cooper
EXTD=
EXTT0=
EXTT1=
EXTT2=
EXTT3=
EXTT4=
EXTT5=
EXTT6=
EXTT7=
EXTT8=
EXTT9=
EXTT10=
EXTT11=
EXTT12=
EXTT13=
EXTT14=
PLAYORDER=
